# ProBuilder 6.0.7
# https://unity3d.com/unity/features/worldbuilding/probuilder
# 10.11.2025 12:59:04

mtllib ./Cone_(2).mtl
o Cone (2)

g Cone (2)
v 17.87297 12.07966 -40.18826
v 17.89 12.07966 -40.05885
v 18.37297 13.07966 -40.18826
v 18.37297 12.07966 -40.18826
v 17.93995 12.07966 -39.93826
v 18.01941 12.07966 -39.83471
v 18.12297 12.07966 -39.75525
v 18.24356 12.07966 -39.7053
v 18.37297 12.07966 -39.68826
v 18.50238 12.07966 -39.7053
v 18.62297 12.07966 -39.75525
v 18.72652 12.07966 -39.83471
v 18.80598 12.07966 -39.93826
v 18.85593 12.07966 -40.05885
v 18.87297 12.07966 -40.18826
v 18.85593 12.07966 -40.31767
v 18.80598 12.07966 -40.43826
v 18.72652 12.07966 -40.54182
v 18.62297 12.07966 -40.62128
v 18.50238 12.07966 -40.67123
v 18.37297 12.07966 -40.68826
v 18.24356 12.07966 -40.67123
v 18.12297 12.07966 -40.62128
v 18.01941 12.07966 -40.54182
v 17.93995 12.07966 -40.43826
v 17.89 12.07966 -40.31767

vt 0 0
vt 0.2610524 0
vt 0.1305262 1.408177
vt -0.5 0
vt -0.4829628 0.1294096
vt -0.4330127 0.25
vt -0.3535533 0.3535533
vt -0.25 0.4330127
vt -0.1294093 0.4829628
vt 0 0.5
vt 0.1294093 0.4829628
vt 0.25 0.4330127
vt 0.3535533 0.3535533
vt 0.4330125 0.25
vt 0.4829631 0.1294096
vt 0.5 0
vt 0.4829631 -0.1294096
vt 0.4330125 -0.25
vt 0.3535533 -0.3535533
vt 0.25 -0.4330127
vt 0.1294093 -0.4829628
vt 0 -0.5
vt -0.1294093 -0.4829628
vt -0.25 -0.4330127
vt -0.3535533 -0.3535535
vt -0.4330127 -0.25
vt -0.4829628 -0.1294096

vn -0.8944272 0.4472136 9.930137E-18
vn -0.8639503 0.4472136 0.2314948
vn 3.355022E-08 1 -2.795852E-09
vn 0 -1 -2.220446E-17
vn -0.7745965 0.4472136 0.4472138
vn -0.6324556 0.4472136 0.6324556
vn -0.4472135 0.4472136 0.7745967
vn -0.2314946 0.4472135 0.8639504
vn 0 0.4472136 0.8944272
vn 0.2314946 0.4472135 0.8639504
vn 0.4472135 0.4472136 0.7745967
vn 0.6324561 0.4472135 0.6324551
vn 0.7745962 0.4472135 0.4472146
vn 0.8639501 0.4472137 0.2314955
vn 0.8944272 0.4472136 9.930137E-18
vn 0.8639501 0.4472137 -0.2314955
vn 0.7745962 0.4472135 -0.4472146
vn 0.6324561 0.4472135 -0.6324551
vn 0.4472135 0.4472136 -0.7745967
vn 0.2314946 0.4472135 -0.8639504
vn 0 0.4472136 -0.8944272
vn -0.2314946 0.4472135 -0.8639504
vn -0.4472129 0.4472136 -0.774597
vn -0.6324554 0.4472136 -0.6324556
vn -0.7745968 0.4472136 -0.4472134
vn -0.8639503 0.4472136 -0.2314948

usemtl ProBuilderDefault
f 1/1/1 2/2/2 3/3/3
f 4/1/4 2/5/4 1/4/4
f 2/1/2 5/2/5 3/3/3
f 4/1/4 5/6/4 2/5/4
f 5/1/5 6/2/6 3/3/3
f 4/1/4 6/7/4 5/6/4
f 6/1/6 7/2/7 3/3/3
f 4/1/4 7/8/4 6/7/4
f 7/1/7 8/2/8 3/3/3
f 4/1/4 8/9/4 7/8/4
f 8/1/8 9/2/9 3/3/3
f 4/1/4 9/10/4 8/9/4
f 9/1/9 10/2/10 3/3/3
f 4/1/4 10/11/4 9/10/4
f 10/1/10 11/2/11 3/3/3
f 4/1/4 11/12/4 10/11/4
f 11/1/11 12/2/12 3/3/3
f 4/1/4 12/13/4 11/12/4
f 12/1/12 13/2/13 3/3/3
f 4/1/4 13/14/4 12/13/4
f 13/1/13 14/2/14 3/3/3
f 4/1/4 14/15/4 13/14/4
f 14/1/14 15/2/15 3/3/3
f 4/1/4 15/16/4 14/15/4
f 15/1/15 16/2/16 3/3/3
f 4/1/4 16/17/4 15/16/4
f 16/1/16 17/2/17 3/3/3
f 4/1/4 17/18/4 16/17/4
f 17/1/17 18/2/18 3/3/3
f 4/1/4 18/19/4 17/18/4
f 18/1/18 19/2/19 3/3/3
f 4/1/4 19/20/4 18/19/4
f 19/1/19 20/2/20 3/3/3
f 4/1/4 20/21/4 19/20/4
f 20/1/20 21/2/21 3/3/3
f 4/1/4 21/22/4 20/21/4
f 21/1/21 22/2/22 3/3/3
f 4/1/4 22/23/4 21/22/4
f 22/1/22 23/2/23 3/3/3
f 4/1/4 23/24/4 22/23/4
f 23/1/23 24/2/24 3/3/3
f 4/1/4 24/25/4 23/24/4
f 24/1/24 25/2/25 3/3/3
f 4/1/4 25/26/4 24/25/4
f 25/1/25 26/2/26 3/3/3
f 4/1/4 26/27/4 25/26/4
f 26/1/26 1/2/1 3/3/3
f 4/1/4 1/4/4 26/27/4

